<!DOCTYPE svg PUBLIC "-//W3C//DTD SVG 1.1//EN" "http://www.w3.org/Graphics/SVG/1.1/DTD/svg11.dtd">
<!-- Uploaded to: SVG Repo, www.svgrepo.com, Transformed by: SVG Repo Mixer Tools -->
<svg version="1.1" id="Layer_1" xmlns="http://www.w3.org/2000/svg" xmlns:xlink="http://www.w3.org/1999/xlink" viewBox="-49 -49 588.00 588.00" xml:space="preserve" width="64px" height="64px" fill="#000000" transform="matrix(1, 0, 0, 1, 0, 0)">
<g id="SVGRepo_bgCarrier" stroke-width="0">
<path transform="translate(-49, -49), scale(36.75)" fill="#7ed0ec" d="M9.166.33a2.25 2.25 0 00-2.332 0l-5.25 3.182A2.25 2.25 0 00.5 5.436v5.128a2.25 2.25 0 001.084 1.924l5.25 3.182a2.25 2.25 0 002.332 0l5.25-3.182a2.25 2.25 0 001.084-1.924V5.436a2.25 2.25 0 00-1.084-1.924L9.166.33z" strokewidth="0"/>
</g>
<g id="SVGRepo_tracerCarrier" stroke-linecap="round" stroke-linejoin="round"/>
<g id="SVGRepo_iconCarrier"> <g> <g id="XMLID_25_"> <g> <polygon style="fill:#AFB6BB;" points="430,100 340,100 340,10 "/> <path style="fill:#FFFFFF;" d="M430,100v380H60V10h280v90H430z M200,335c55.195,0,100-44.805,100-100c0-55.2-44.805-100-100-100 s-100,44.8-100,100C100,290.195,144.805,335,200,335z"/> <path style="fill:#31C0D8;" d="M300,235H200V135C255.195,135,300,179.8,300,235z"/> <path style="fill:#FFD248;" d="M200,235h100c0,55.195-44.805,100-100,100s-100-44.805-100-100c0-55.2,44.805-100,100-100V235z"/> </g> <g> <path style="fill:#231F20;" d="M439.976,100c-0.001-2.601-0.992-5.159-2.904-7.071l-90-90c-1.913-1.912-4.47-2.904-7.071-2.904V0 H60c-5.522,0-10,4.477-10,10v470c0,5.523,4.478,10,10,10h370c5.522,0,10-4.477,10-10V100H439.976z M350,34.142L405.857,90H350 V34.142z M70,470V20h260v80c0,5.523,4.478,10,10,10h80v360H70z"/> <rect x="100" y="45" style="fill:#231F20;" width="60" height="20"/> <rect x="100" y="80" style="fill:#231F20;" width="120" height="20"/> <rect x="100" y="380" style="fill:#231F20;" width="300" height="20"/> <rect x="100" y="420" style="fill:#231F20;" width="255" height="20"/> <path style="fill:#231F20;" d="M200,345c60.654,0,110-49.346,110-110s-49.346-110-110-110S90,174.346,90,235S139.346,345,200,345 z M289.441,225H210v-79.441C251.652,150.185,284.815,183.348,289.441,225z M190,145.559V235c0,5.523,4.477,10,10,10h89.441 c-4.99,44.936-43.195,80-89.441,80c-49.626,0-90-40.374-90-90C110,188.754,145.064,150.549,190,145.559z"/> <rect x="335" y="150" style="fill:#231F20;" width="65" height="20"/> <rect x="335" y="190" style="fill:#231F20;" width="65" height="20"/> <rect x="335" y="230" style="fill:#231F20;" width="65" height="20"/> <rect x="335" y="270" style="fill:#231F20;" width="65" height="20"/> <rect x="380" y="310" style="fill:#231F20;" width="20" height="20"/> <rect x="350" y="310" style="fill:#231F20;" width="20" height="20"/> <rect x="320" y="310" style="fill:#231F20;" width="20" height="20"/> </g> </g> </g> </g>
</svg>